<svg width="116" height="104" viewBox="0 0 116 104" fill="none" xmlns="http://www.w3.org/2000/svg">
<path d="M48.5 73.625L50.3125 69.125H65.6875L67.5 73.625H48.5ZM45 82.625L46.75 78.125H69.1875L71.125 82.625H45ZM41.5 91.625L43.25 87.125H72.75L74.625 91.625H41.5ZM4.9375 104H0.0625L41 0.5H45.875L86.75 104H81.9375L43.4375 6.5625L4.9375 104ZM44 17.25L46.5625 23L14.5625 104H9.75L44 17.25ZM49 29.125L51.375 35.3125L24.3125 104H19.4375L49 29.125ZM53.75 41.5L56.125 47.8125L33.9375 104H29.125L53.75 41.5ZM115.812 104H110.938L70.0625 0.5H74.875L115.812 104ZM65.1875 0.5L106.125 104H101.312L60.375 0.5H65.1875ZM55.5 0.5L96.4375 104H91.5625L50.6875 0.5H55.5Z" fill="#FFA192"/>
</svg>
