<svg width="191" height="92" viewBox="0 0 191 92" fill="none" xmlns="http://www.w3.org/2000/svg">
<path d="M75.375 90L44.125 91.5L43.875 62.625H29.5L28.625 90H0.625L3 2.125L32.75 3.5L30.875 48.375H44.75L44.875 0.125L73.375 0.875L75.375 90ZM115.062 2L108.188 87.125L81.8125 88.5V3.75L115.062 2ZM190.25 40.375C190.25 46.2083 189.5 51.4792 188 56.1875C186.5 60.8542 184.396 65.0208 181.688 68.6875C179.021 72.3125 175.833 75.4375 172.125 78.0625C168.417 80.6875 164.354 82.8542 159.938 84.5625C155.521 86.2292 150.812 87.4792 145.812 88.3125C140.854 89.1042 135.75 89.5 130.5 89.5C128.542 89.5 126.625 89.4583 124.75 89.375C122.875 89.25 120.958 89.0833 119 88.875L120.75 5C125.333 3.54167 130.042 2.52083 134.875 1.9375C139.75 1.3125 144.583 1 149.375 1C155.333 1 160.812 1.89583 165.812 3.6875C170.812 5.47917 175.125 8.0625 178.75 11.4375C182.375 14.8125 185.188 18.9375 187.188 23.8125C189.229 28.6875 190.25 34.2083 190.25 40.375ZM164.625 44.375C164.667 42.125 164.417 39.9583 163.875 37.875C163.375 35.7917 162.521 33.9583 161.312 32.375C160.146 30.75 158.646 29.4583 156.812 28.5C154.979 27.5 152.792 26.9583 150.25 26.875L147.75 65.625C150.25 65.25 152.521 64.4375 154.562 63.1875C156.604 61.8958 158.354 60.3333 159.812 58.5C161.312 56.625 162.458 54.5625 163.25 52.3125C164.083 50.0208 164.542 47.6667 164.625 45.25V44.375Z" fill="#FFA192"/>
</svg>
