<svg width="8" height="9" viewBox="0 0 8 9" fill="none" xmlns="http://www.w3.org/2000/svg">
<path d="M4.836 9H1.044C0.892 9 0.78 8.968 0.708 8.904C0.644 8.832 0.612 8.72 0.612 8.568V7.164C0.612 7.012 0.644 6.904 0.708 6.84C0.78 6.768 0.892 6.732 1.044 6.732H4.272C4.376 6.732 4.452 6.7 4.5 6.636C4.556 6.564 4.584 6.48 4.584 6.384C4.584 6.248 4.556 6.148 4.5 6.084C4.452 6.02 4.376 5.984 4.272 5.976L2.472 5.724C1.912 5.644 1.46 5.46 1.116 5.172C0.78 4.884 0.612 4.404 0.612 3.732V2.472C0.612 1.792 0.832 1.272 1.272 0.912C1.712 0.544 2.32 0.36 3.096 0.36H6.456C6.608 0.36 6.716 0.396 6.78 0.468C6.852 0.532 6.888 0.64 6.888 0.792V2.22C6.888 2.372 6.852 2.484 6.78 2.556C6.716 2.62 6.608 2.652 6.456 2.652H3.66C3.556 2.652 3.476 2.688 3.42 2.76C3.364 2.824 3.336 2.908 3.336 3.012C3.336 3.116 3.364 3.204 3.42 3.276C3.476 3.348 3.556 3.388 3.66 3.396L5.448 3.636C6.008 3.716 6.46 3.9 6.804 4.188C7.148 4.476 7.32 4.956 7.32 5.628V6.888C7.32 7.568 7.096 8.092 6.648 8.46C6.208 8.82 5.604 9 4.836 9ZM5.808 1.44H3.144C2.776 1.44 2.48 1.544 2.256 1.752C2.032 1.952 1.92 2.212 1.92 2.532V3.516C1.92 3.844 1.984 4.072 2.112 4.2C2.248 4.32 2.42 4.4 2.628 4.44L5.16 4.956C5.384 5.004 5.56 5.1 5.688 5.244C5.824 5.38 5.892 5.636 5.892 6.012V6.708C5.892 7.028 5.78 7.292 5.556 7.5C5.34 7.7 5.048 7.8 4.68 7.8H1.692V7.92H4.68C5.088 7.92 5.412 7.808 5.652 7.584C5.892 7.352 6.012 7.06 6.012 6.708V6.012C6.012 5.596 5.932 5.308 5.772 5.148C5.62 4.988 5.424 4.884 5.184 4.836L2.652 4.32C2.468 4.288 2.32 4.216 2.208 4.104C2.096 3.992 2.04 3.796 2.04 3.516V2.532C2.04 2.252 2.14 2.02 2.34 1.836C2.54 1.652 2.808 1.56 3.144 1.56H5.808V1.44Z" fill="#D13C2F"/>
</svg>
