<svg width="22" height="10" viewBox="0 0 22 10" fill="none" xmlns="http://www.w3.org/2000/svg">
<path d="M8.184 6.732C8.184 7.1 8.128 7.436 8.016 7.74C7.912 8.036 7.72 8.292 7.44 8.508C7.168 8.716 6.792 8.88 6.312 9C5.832 9.12 5.22 9.18 4.476 9.18C3.732 9.18 3.12 9.12 2.64 9C2.16 8.88 1.78 8.716 1.5 8.508C1.228 8.292 1.036 8.036 0.924 7.74C0.82 7.436 0.768 7.1 0.768 6.732V0.792C0.768 0.64 0.8 0.532 0.864 0.468C0.936 0.396 1.048 0.36 1.2 0.36H3.084C3.236 0.36 3.344 0.396 3.408 0.468C3.48 0.532 3.516 0.64 3.516 0.792V6.264C3.516 6.424 3.576 6.56 3.696 6.672C3.816 6.776 4.084 6.828 4.5 6.828C4.924 6.828 5.196 6.776 5.316 6.672C5.436 6.56 5.496 6.424 5.496 6.264V0.792C5.496 0.64 5.528 0.532 5.592 0.468C5.664 0.396 5.776 0.36 5.928 0.36H7.752C7.904 0.36 8.012 0.396 8.076 0.468C8.148 0.532 8.184 0.64 8.184 0.792V6.732ZM2.088 1.44V6.444C2.088 6.924 2.252 7.316 2.58 7.62C2.916 7.916 3.552 8.064 4.488 8.064C5.424 8.064 6.06 7.916 6.396 7.62C6.732 7.316 6.9 6.924 6.9 6.444V1.44H6.78V6.444C6.78 6.892 6.62 7.256 6.3 7.536C5.98 7.808 5.376 7.944 4.488 7.944C3.6 7.944 2.996 7.808 2.676 7.536C2.364 7.256 2.208 6.892 2.208 6.444V1.44H2.088ZM12.4691 9H10.0451C9.89313 9 9.78113 8.968 9.70913 8.904C9.64513 8.832 9.61313 8.72 9.61313 8.568V6.132C9.61313 5.98 9.64513 5.872 9.70913 5.808C9.78113 5.736 9.89313 5.7 10.0451 5.7H12.4691C12.6211 5.7 12.7291 5.736 12.7931 5.808C12.8651 5.872 12.9011 5.98 12.9011 6.132V8.568C12.9011 8.72 12.8651 8.832 12.7931 8.904C12.7291 8.968 12.6211 9 12.4691 9ZM11.1971 7.92H11.3171V6.78H11.1971V7.92ZM20.9866 9H17.2066C16.2066 9 15.4626 8.8 14.9746 8.4C14.4946 8 14.2546 7.384 14.2546 6.552V2.808C14.2546 1.976 14.4946 1.36 14.9746 0.96C15.4626 0.56 16.2066 0.36 17.2066 0.36H20.2066C20.3586 0.36 20.4666 0.396 20.5306 0.468C20.6026 0.532 20.6386 0.64 20.6386 0.792V2.244C20.6386 2.396 20.6026 2.508 20.5306 2.58C20.4666 2.644 20.3586 2.676 20.2066 2.676H17.7106C17.4626 2.676 17.2786 2.728 17.1586 2.832C17.0386 2.928 16.9786 3.076 16.9786 3.276V6.144C16.9786 6.344 17.0226 6.492 17.1106 6.588C17.2066 6.684 17.3466 6.732 17.5306 6.732H18.6946V4.86C18.6946 4.708 18.7266 4.6 18.7906 4.536C18.8626 4.464 18.9746 4.428 19.1266 4.428H20.9866C21.1386 4.428 21.2466 4.464 21.3106 4.536C21.3826 4.6 21.4186 4.708 21.4186 4.86V8.568C21.4186 8.72 21.3826 8.832 21.3106 8.904C21.2466 8.968 21.1386 9 20.9866 9ZM17.7226 7.92H20.1106V5.508H19.9906V7.8H17.7226C16.9146 7.8 16.3706 7.692 16.0906 7.476C15.8186 7.26 15.6826 6.892 15.6826 6.372V3.012C15.6826 2.484 15.8066 2.112 16.0546 1.896C16.3026 1.672 16.7786 1.56 17.4826 1.56H19.5586V1.44H17.4826C16.7146 1.44 16.2026 1.56 15.9466 1.8C15.6906 2.04 15.5626 2.444 15.5626 3.012V6.372C15.5626 6.652 15.5906 6.892 15.6466 7.092C15.7106 7.284 15.8226 7.444 15.9826 7.572C16.1426 7.692 16.3626 7.78 16.6426 7.836C16.9226 7.892 17.2826 7.92 17.7226 7.92Z" fill="#D13C2F"/>
</svg>
